<?xml version="1.0" encoding="UTF-8"?>
<!DOCTYPE svg PUBLIC "-//W3C//DTD SVG 1.1//EN" "http://www.w3.org/Graphics/SVG/1.1/DTD/svg11.dtd">
<!-- Creator: CorelDRAW 2020 (64-Bit) -->
<svg xmlns="http://www.w3.org/2000/svg" xml:space="preserve" width="173.798mm" height="52.7379mm" version="1.1" style="shape-rendering:geometricPrecision; text-rendering:geometricPrecision; image-rendering:optimizeQuality; fill-rule:evenodd; clip-rule:evenodd"
viewBox="0 0 2334.86 708.5"
 xmlns:xlink="http://www.w3.org/1999/xlink"
 xmlns:xodm="http://www.corel.com/coreldraw/odm/2003">
 <defs>
  <style type="text/css">
   <![CDATA[
    .fil1 {fill:#F49842;fill-rule:nonzero}
    .fil3 {fill:#919496;fill-rule:nonzero}
    .fil2 {fill:#61BAE8;fill-rule:nonzero}
    .fil0 {fill:#5A5D5F;fill-rule:nonzero}
   ]]>
  </style>
 </defs>
 <g id="Capa_x0020_1">
  <metadata id="CorelCorpID_0Corel-Layer"/>
  <path class="fil0" d="M664.19 293.37l0 197.29c2.23,10.09 7.33,15.23 15.32,15.23l66.97 0c24.61,0 40.71,-12.04 48.31,-35.77 1.31,-4.43 1.96,-9.92 1.96,-16.29 0,-23.2 -13.49,-38.79 -40.46,-47.11 -10.61,-0.71 -15.9,-1.59 -15.9,-2.83l0 -0.53c0,-4.43 2.68,-13.81 8.05,-28.16 1.7,-1.24 7.2,-3.72 16.5,-7.44 15.05,-10.27 22.58,-24.44 22.58,-42.5l0 -1.24c0,-25.15 -12.17,-40.73 -36.52,-46.4 -4.71,-1.06 -9.75,-1.42 -15.12,-1.42l-54.4 0c-11.52,1.06 -17.28,6.73 -17.28,17.18zm-18.46 -47.82l99.37 0c32.47,0 56.76,15.23 72.86,45.69 3.92,10.63 5.89,19.84 5.89,27.98l0 5.49c0,20.37 -9.49,39.49 -28.47,57.38 -0.39,3.19 -0.85,4.78 -1.37,4.78 0,4.07 5.29,9.56 15.9,16.47 15.05,14.88 22.58,31.17 22.58,48.35l0 6.91c0,30.99 -16.37,54.55 -49.1,71.2 -12.04,3.9 -23.04,6.02 -32.99,6.02l-104.68 0c-9.29,-2.13 -13.93,-6.91 -13.93,-14.35l0 -261.76c2.09,-9.39 6.74,-14.17 13.93,-14.17z"/>
  <path class="fil0" d="M1008.83 245.55l21.4 0c3.92,2.3 5.9,4.78 5.9,7.44l0 276.81c-1.45,2.66 -3.41,4.61 -5.9,6.02l-21.4 0c-2.62,-1.59 -4.59,-3.54 -5.89,-6.02l0 -278.23c1.44,-2.66 3.4,-4.6 5.89,-6.02z"/>
  <path class="fil0" d="M1215.43 245.55l172.22 0c3.67,0 6.09,2.48 7.27,7.44l0 14.35c0,5.49 -4.19,8.15 -12.57,8.15l-49.1 0c-10.08,2.48 -15.11,7.79 -15.11,15.76l0 233.07c0,7.62 -2.69,11.51 -8.05,11.51l-17.08 0c-5.38,0 -8.06,-3.9 -8.06,-11.51l0 -233.07c-2.23,-10.45 -7.26,-15.76 -15.11,-15.76l-49.1 0c-8.38,0 -12.56,-2.66 -12.56,-8.15l0 -14.35c0,-3.72 2.42,-6.2 7.27,-7.44z"/>
  <path class="fil0" d="M1689.86 245.55l5.3 0c5.12,0 9.05,5.31 11.8,15.76 75.41,171.61 113.89,259.99 115.47,264.95l0 2.66c0,4.25 -2.69,6.55 -8.06,6.91l-17.29 0c-4.44,0 -8.82,-6.91 -13.14,-20.54l-82.88 -190.56c-2.6,-2.66 -5.49,-4.07 -8.64,-4.07 -6.68,0 -12.43,8.15 -17.27,24.62 -52.12,119.9 -79.74,182.95 -82.88,189.15l-4.52 1.42 -17.28 0c-5.23,-0.35 -7.85,-2.66 -7.85,-6.91l0 -2.66c18.06,-43.21 58.71,-135.84 121.95,-277.88 1.82,-1.95 3.6,-2.83 5.29,-2.83z"/>
  <path class="fil0" d="M2042.53 245.55l7.85 0c5.24,0 9.9,8.68 13.96,25.86 0.9,1.24 21.66,60.57 62.25,177.63 1.31,2.48 3.74,4.07 7.26,4.78 5.49,0 9.69,-6.55 12.57,-19.66 41.88,-121.85 63.49,-184.01 64.8,-186.67 2.21,-1.24 3.98,-1.95 5.31,-1.95l8.04 0c5.63,0 8.91,7.79 9.81,23.2 25.66,160.63 39.14,247.41 40.47,260.16l0 1.95c-1.97,3.37 -4.2,4.96 -6.68,4.96l-17.87 0c-5.77,0 -8.66,-6.2 -8.66,-18.42l-21 -166.83c-2.09,-2.66 -4.98,-3.9 -8.64,-3.9 -4.85,0 -9.3,8.5 -13.35,25.86 -1.31,2.83 -19.37,55.96 -54.19,159.22 -2.23,2.66 -4.45,4.07 -6.68,4.07l-8.64 0c-4.98,0 -9.16,-7.61 -12.57,-22.49 -1.7,-4.43 -20.42,-58.98 -56.16,-163.29 -2.36,-2.3 -4.39,-3.37 -6.09,-3.37l-0.58 0c-6.68,0 -10.02,6.2 -10.02,18.95 -13.21,107.68 -20.28,163.29 -21.2,166.65 -2.5,2.3 -4.64,3.54 -6.48,3.54l-17.87 0c-2.89,0 -5.1,-1.59 -6.68,-4.96l0 -1.95c3.54,-27.63 18.33,-120.78 44.38,-279.29 2.62,-2.66 4.84,-4.07 6.68,-4.07z"/>
  <path class="fil0" d="M2295.49 262.55c0,11.16 8.82,20.37 19.66,20.37 10.84,0 19.71,-9.21 19.71,-20.37 0,-11.16 -8.87,-20.37 -19.71,-20.37 -10.84,0 -19.66,9.21 -19.66,20.37zm4.27 0c0,-8.85 6.89,-15.94 15.39,-15.94 8.54,0 15.37,7.08 15.37,15.94 0,8.86 -6.84,15.94 -15.37,15.94 -8.5,0 -15.39,-7.08 -15.39,-15.94zm8.06 9.21c0,0.53 0.43,1.06 1.03,1.06l2.69 0c0.6,0 1.03,-0.53 1.03,-1.06l0 -6.02 2.85 0 2.41 6.38c0.16,0.35 0.55,0.71 0.99,0.71l2.96 0c0.76,0 1.26,-0.71 0.92,-1.42l-2.51 -6.02c1.7,-0.71 3.9,-2.48 3.9,-6.2 0,-4.43 -3.35,-7.08 -6.75,-7.08l-8.48 0c-0.6,0 -1.03,0.53 -1.03,1.06l0 18.6zm4.59 -10.27l0 -4.6 4.32 0c1.33,0 2.25,1.06 2.25,2.3 0,1.42 -0.92,2.3 -2.25,2.3l-4.32 0z"/>
  <path class="fil1" d="M24.25 5.22l121.5 121.32c12.88,16.83 13.79,22.31 10,43.04l-86.06 497.13c-1.64,9.03 -14.85,8.32 -15.61,-0.71l-54.03 -651.74c-1.09,-13.11 16.08,-19.48 24.2,-9.03l0 0z"/>
  <path class="fil2" d="M209.03 152.39l214.98 77.57c12.86,4.96 22.61,15.23 26.42,27.8l61.92 195.17c3.17,12.04 -16.84,17.36 -23.47,11.16l-297.33 -292.57c-11.72,-11.51 1,-27.63 17.48,-19.13l0 0z"/>
  <path class="fil3" d="M497.74 489.42l-397.11 170.73c-10.42,4.43 -7.48,20.37 3.79,20.54l224.96 0c18.69,0.18 39.18,-5.67 51.59,-20.19l128.39 -154.26c8.45,-9.92 0.13,-21.96 -11.63,-16.83l0 0z"/>
  <path class="fil3" d="M644.51 655.37l23.13 0c2.79,0 5.22,-0.71 7.28,-2.13 2.06,-1.59 3.65,-3.54 4.79,-5.85 1.13,-2.48 1.7,-5.14 1.7,-7.79 0,-2.83 -0.65,-5.31 -1.95,-7.79 -1.3,-2.3 -3.03,-4.25 -5.19,-5.67 -2.16,-1.42 -4.57,-2.13 -7.22,-2.13l-22.54 0 0 31.35zm-6.98 31.52l0 -68.89 29.92 0c3.06,0 5.85,0.53 8.38,1.77 2.53,1.24 4.74,3.01 6.63,4.96 1.9,2.13 3.36,4.43 4.39,7.09 1.02,2.48 1.54,5.14 1.54,7.79 0,3.37 -0.65,6.38 -1.95,9.39 -1.29,2.83 -3.12,5.31 -5.48,7.26 -2.36,2.13 -5.13,3.37 -8.32,4.07l17.34 26.56 -7.88 0 -16.65 -25.5 -20.94 0 0 25.5 -6.98 0z"/>
  <path class="fil3" d="M702.15 659.26l38.38 0c-0.26,-3.54 -1.28,-6.73 -3.04,-9.56 -1.77,-2.83 -4.06,-4.96 -6.88,-6.55 -2.82,-1.42 -5.93,-2.3 -9.32,-2.3 -3.39,0 -6.48,0.89 -9.27,2.3 -2.79,1.59 -5.07,3.9 -6.84,6.55 -1.76,2.83 -2.77,6.02 -3.04,9.56zm19.14 28.51c-3.72,0 -7.18,-0.71 -10.37,-1.95 -3.19,-1.42 -5.95,-3.36 -8.27,-5.84 -2.33,-2.3 -4.14,-5.14 -5.44,-8.32 -1.29,-3.19 -1.94,-6.55 -1.94,-10.09 0,-4.78 1.11,-9.03 3.33,-12.93 2.23,-3.9 5.3,-7.08 9.22,-9.39 3.92,-2.3 8.38,-3.54 13.36,-3.54 5.12,0 9.59,1.24 13.42,3.54 3.82,2.48 6.83,5.49 9.02,9.39 2.2,3.9 3.29,8.15 3.29,12.75 0,0.53 0,1.06 0,1.59 0,0.53 -0.03,0.89 -0.1,1.06l-44.47 0c0.33,3.54 1.38,6.91 3.15,9.56 1.76,2.83 4.05,5.14 6.88,6.73 2.83,1.59 5.9,2.48 9.22,2.48 3.39,0 6.59,-0.89 9.62,-2.48 3.02,-1.77 5.13,-3.9 6.33,-6.73l5.88 1.59c-1.06,2.48 -2.69,4.6 -4.88,6.55 -2.19,1.95 -4.77,3.37 -7.72,4.43 -2.96,1.06 -6.14,1.59 -9.53,1.59z"/>
  <path class="fil3" d="M758.47 686.89l0 -45.34 -7.18 0 0 -5.31 7.18 0 0 -1.24c0,-4.25 0.62,-7.79 1.85,-10.8 1.23,-2.83 3,-5.14 5.29,-6.73 2.29,-1.59 5,-2.48 8.13,-2.48 2.06,0 4.05,0.35 5.98,0.89 1.93,0.71 3.59,1.42 4.99,2.3l-2.09 4.78c-0.87,-0.71 -2,-1.24 -3.4,-1.59 -1.39,-0.35 -2.79,-0.53 -4.18,-0.53 -3.13,0 -5.53,1.06 -7.23,3.54 -1.7,2.3 -2.54,5.84 -2.54,10.45l0 1.42 14.36 0 0 5.31 -14.36 0 0 45.34 -6.79 0z"/>
  <path class="fil3" d="M789.78 659.26l38.39 0c-0.26,-3.54 -1.28,-6.73 -3.04,-9.56 -1.76,-2.83 -4.05,-4.96 -6.88,-6.55 -2.82,-1.42 -5.93,-2.3 -9.32,-2.3 -3.39,0 -6.48,0.89 -9.28,2.3 -2.79,1.59 -5.06,3.9 -6.82,6.55 -1.76,2.83 -2.78,6.02 -3.05,9.56zm19.15 28.51c-3.73,0 -7.18,-0.71 -10.37,-1.95 -3.19,-1.42 -5.95,-3.36 -8.27,-5.84 -2.33,-2.3 -4.14,-5.14 -5.44,-8.32 -1.3,-3.19 -1.95,-6.55 -1.95,-10.09 0,-4.78 1.11,-9.03 3.34,-12.93 2.23,-3.9 5.31,-7.08 9.22,-9.39 3.92,-2.3 8.38,-3.54 13.36,-3.54 5.12,0 9.59,1.24 13.41,3.54 3.82,2.48 6.83,5.49 9.02,9.39 2.19,3.9 3.29,8.15 3.29,12.75 0,0.53 0,1.06 0,1.59 0,0.53 -0.04,0.89 -0.1,1.06l-44.47 0c0.33,3.54 1.37,6.91 3.14,9.56 1.76,2.83 4.05,5.14 6.87,6.73 2.82,1.59 5.9,2.48 9.22,2.48 3.39,0 6.6,-0.89 9.62,-2.48 3.02,-1.77 5.13,-3.9 6.33,-6.73l5.88 1.59c-1.06,2.48 -2.69,4.6 -4.88,6.55 -2.19,1.95 -4.77,3.37 -7.73,4.43 -2.95,1.06 -6.13,1.59 -9.52,1.59z"/>
  <path class="fil3" d="M870.15 642.08c-4.53,0.18 -8.49,1.42 -11.91,3.72 -3.42,2.3 -5.84,5.49 -7.23,9.56l0 31.52 -6.79 0 0 -50.47 6.39 0 0 12.04c1.79,-3.54 4.17,-6.37 7.13,-8.68 2.95,-2.13 6.09,-3.37 9.41,-3.72 0.66,0 1.25,0 1.75,0 0.5,0 0.91,0 1.25,0l0 6.02z"/>
  <path class="fil3" d="M880.11 659.26l38.38 0c-0.26,-3.54 -1.27,-6.73 -3.04,-9.56 -1.76,-2.83 -4.05,-4.96 -6.88,-6.55 -2.83,-1.42 -5.94,-2.3 -9.33,-2.3 -3.39,0 -6.47,0.89 -9.27,2.3 -2.79,1.59 -5.07,3.9 -6.83,6.55 -1.76,2.83 -2.77,6.02 -3.04,9.56zm19.14 28.51c-3.72,0 -7.18,-0.71 -10.37,-1.95 -3.19,-1.42 -5.95,-3.36 -8.27,-5.84 -2.32,-2.3 -4.14,-5.14 -5.43,-8.32 -1.3,-3.19 -1.95,-6.55 -1.95,-10.09 0,-4.78 1.11,-9.03 3.34,-12.93 2.23,-3.9 5.3,-7.08 9.23,-9.39 3.92,-2.3 8.37,-3.54 13.36,-3.54 5.12,0 9.59,1.24 13.41,3.54 3.82,2.48 6.83,5.49 9.03,9.39 2.19,3.9 3.29,8.15 3.29,12.75 0,0.53 0,1.06 0,1.59 0,0.53 -0.03,0.89 -0.1,1.06l-44.47 0c0.33,3.54 1.38,6.91 3.14,9.56 1.76,2.83 4.05,5.14 6.88,6.73 2.82,1.59 5.89,2.48 9.22,2.48 3.39,0 6.6,-0.89 9.62,-2.48 3.03,-1.77 5.14,-3.9 6.33,-6.73l5.89 1.59c-1.06,2.48 -2.7,4.6 -4.88,6.55 -2.19,1.95 -4.77,3.37 -7.74,4.43 -2.95,1.06 -6.13,1.59 -9.52,1.59z"/>
  <path class="fil3" d="M978.23 686.89l-6.79 0 0 -28.16c0,-5.85 -0.89,-10.1 -2.69,-12.93 -1.79,-2.66 -4.62,-4.07 -8.48,-4.07 -2.66,0 -5.28,0.71 -7.87,1.95 -2.6,1.24 -4.88,2.83 -6.83,4.96 -1.97,2.3 -3.38,4.61 -4.24,7.44l0 30.82 -6.78 0 0 -50.47 6.18 0 0 11.51c1.39,-2.48 3.22,-4.61 5.48,-6.38 2.26,-1.77 4.81,-3.19 7.68,-4.25 2.86,-1.06 5.81,-1.59 8.87,-1.59 2.86,0 5.29,0.53 7.28,1.59 2,1.06 3.6,2.48 4.79,4.43 1.2,1.77 2.06,4.07 2.6,6.73 0.53,2.66 0.8,5.67 0.8,9.03l0 29.4z"/>
  <path class="fil3" d="M1016.31 684.77c-0.53,0.18 -1.36,0.53 -2.5,1.06 -1.13,0.53 -2.49,1.06 -4.09,1.42 -1.59,0.35 -3.32,0.53 -5.18,0.53 -1.92,0 -3.74,-0.35 -5.43,-1.06 -1.7,-0.71 -3.04,-1.77 -4.04,-3.19 -1,-1.42 -1.49,-3.37 -1.49,-5.49l0 -36.31 -7.18 0 0 -5.31 7.18 0 0 -17 6.78 0 0 17 11.97 0 0 5.31 -11.97 0 0 34.54c0.13,1.77 0.82,3.19 2.04,4.07 1.23,0.89 2.64,1.42 4.24,1.42 1.86,0 3.56,-0.35 5.08,-0.89 1.53,-0.71 2.46,-1.06 2.79,-1.42l1.8 5.31z"/>
  <path class="fil3" d="M1026.38 659.26l38.38 0c-0.26,-3.54 -1.28,-6.73 -3.03,-9.56 -1.76,-2.83 -4.06,-4.96 -6.88,-6.55 -2.82,-1.42 -5.93,-2.3 -9.32,-2.3 -3.39,0 -6.48,0.89 -9.27,2.3 -2.79,1.59 -5.07,3.9 -6.84,6.55 -1.76,2.83 -2.77,6.02 -3.03,9.56zm19.14 28.51c-3.73,0 -7.18,-0.71 -10.37,-1.95 -3.19,-1.42 -5.95,-3.36 -8.27,-5.84 -2.33,-2.3 -4.14,-5.14 -5.44,-8.32 -1.3,-3.19 -1.95,-6.55 -1.95,-10.09 0,-4.78 1.12,-9.03 3.34,-12.93 2.23,-3.9 5.3,-7.08 9.22,-9.39 3.92,-2.3 8.37,-3.54 13.36,-3.54 5.12,0 9.59,1.24 13.41,3.54 3.82,2.48 6.83,5.49 9.02,9.39 2.19,3.9 3.29,8.15 3.29,12.75 0,0.53 0,1.06 0,1.59 0,0.53 -0.03,0.89 -0.1,1.06l-44.47 0c0.33,3.54 1.38,6.91 3.14,9.56 1.77,2.83 4.05,5.14 6.88,6.73 2.82,1.59 5.89,2.48 9.22,2.48 3.39,0 6.59,-0.89 9.62,-2.48 3.02,-1.77 5.14,-3.9 6.34,-6.73l5.88 1.59c-1.06,2.48 -2.69,4.6 -4.88,6.55 -2.19,1.95 -4.77,3.37 -7.73,4.43 -2.96,1.06 -6.13,1.59 -9.52,1.59z"/>
  <path class="fil3" d="M1108.73 659.26l38.39 0c-0.26,-3.54 -1.28,-6.73 -3.04,-9.56 -1.76,-2.83 -4.06,-4.96 -6.88,-6.55 -2.82,-1.42 -5.93,-2.3 -9.32,-2.3 -3.39,0 -6.48,0.89 -9.28,2.3 -2.79,1.59 -5.06,3.9 -6.83,6.55 -1.76,2.83 -2.77,6.02 -3.04,9.56zm19.15 28.51c-3.73,0 -7.18,-0.71 -10.37,-1.95 -3.19,-1.42 -5.95,-3.36 -8.27,-5.84 -2.33,-2.3 -4.14,-5.14 -5.44,-8.32 -1.3,-3.19 -1.94,-6.55 -1.94,-10.09 0,-4.78 1.11,-9.03 3.34,-12.93 2.22,-3.9 5.3,-7.08 9.22,-9.39 3.92,-2.3 8.38,-3.54 13.37,-3.54 5.11,0 9.58,1.24 13.41,3.54 3.82,2.48 6.83,5.49 9.02,9.39 2.19,3.9 3.28,8.15 3.28,12.75 0,0.53 0,1.06 0,1.59 0,0.53 -0.03,0.89 -0.09,1.06l-44.48 0c0.34,3.54 1.38,6.91 3.14,9.56 1.77,2.83 4.06,5.14 6.88,6.73 2.82,1.59 5.9,2.48 9.22,2.48 3.39,0 6.6,-0.89 9.62,-2.48 3.02,-1.77 5.13,-3.9 6.33,-6.73l5.88 1.59c-1.06,2.48 -2.69,4.6 -4.88,6.55 -2.2,1.95 -4.77,3.37 -7.73,4.43 -2.95,1.06 -6.13,1.59 -9.52,1.59z"/>
  <path class="fil3" d="M1206.84 686.89l-6.78 0 0 -28.16c0,-5.85 -0.9,-10.1 -2.69,-12.93 -1.79,-2.66 -4.62,-4.07 -8.48,-4.07 -2.66,0 -5.28,0.71 -7.87,1.95 -2.6,1.24 -4.88,2.83 -6.83,4.96 -1.96,2.3 -3.37,4.61 -4.24,7.44l0 30.82 -6.77 0 0 -50.47 6.18 0 0 11.51c1.4,-2.48 3.22,-4.61 5.49,-6.38 2.25,-1.77 4.81,-3.19 7.67,-4.25 2.86,-1.06 5.83,-1.59 8.88,-1.59 2.86,0 5.29,0.53 7.28,1.59 1.99,1.06 3.59,2.48 4.79,4.43 1.2,1.77 2.06,4.07 2.59,6.73 0.53,2.66 0.8,5.67 0.8,9.03l0 29.4z"/>
  <path class="fil3" d="M1245.12 686.89l0 -50.65 6.78 0 0 50.65 -6.78 0zm0 -61.1l0 -9.74 6.78 0 0 9.74 -6.78 0z"/>
  <path class="fil3" d="M1309.73 686.89l-6.78 0 0 -28.16c0,-5.85 -0.9,-10.1 -2.69,-12.93 -1.8,-2.66 -4.62,-4.07 -8.47,-4.07 -2.66,0 -5.29,0.71 -7.88,1.95 -2.59,1.24 -4.87,2.83 -6.83,4.96 -1.96,2.3 -3.38,4.61 -4.23,7.44l0 30.82 -6.79 0 0 -50.47 6.19 0 0 11.51c1.4,-2.48 3.22,-4.61 5.48,-6.38 2.26,-1.77 4.82,-3.19 7.68,-4.25 2.86,-1.06 5.82,-1.59 8.87,-1.59 2.86,0 5.28,0.53 7.28,1.59 1.99,1.06 3.59,2.48 4.79,4.43 1.2,1.77 2.06,4.07 2.59,6.73 0.54,2.66 0.8,5.67 0.8,9.03l0 29.4z"/>
  <path class="fil3" d="M1367.06 686.89l-6.79 0 0 -28.16c0,-5.85 -0.89,-10.1 -2.69,-12.93 -1.8,-2.66 -4.63,-4.07 -8.47,-4.07 -2.66,0 -5.28,0.71 -7.88,1.95 -2.59,1.24 -4.87,2.83 -6.83,4.96 -1.96,2.3 -3.37,4.61 -4.24,7.44l0 30.82 -6.78 0 0 -50.47 6.18 0 0 11.51c1.39,-2.48 3.22,-4.61 5.48,-6.38 2.26,-1.77 4.82,-3.19 7.68,-4.25 2.86,-1.06 5.82,-1.59 8.87,-1.59 2.86,0 5.29,0.53 7.28,1.59 1.99,1.06 3.59,2.48 4.79,4.43 1.2,1.77 2.06,4.07 2.6,6.73 0.53,2.66 0.8,5.67 0.8,9.03l0 29.4z"/>
  <path class="fil3" d="M1384 661.92c0,3.72 0.85,7.09 2.55,10.27 1.7,3.01 3.97,5.49 6.83,7.26 2.86,1.77 6.01,2.66 9.46,2.66 3.46,0 6.61,-1.06 9.48,-2.83 2.86,-1.77 5.15,-4.25 6.88,-7.26 1.73,-3.19 2.6,-6.55 2.6,-10.27 0,-3.72 -0.87,-7.09 -2.6,-10.1 -1.73,-3.19 -4.02,-5.67 -6.88,-7.44 -2.86,-1.77 -6.02,-2.66 -9.48,-2.66 -3.45,0 -6.59,0.89 -9.42,2.83 -2.82,1.77 -5.1,4.25 -6.83,7.26 -1.73,3.19 -2.6,6.55 -2.6,10.27zm18.85 25.86c-3.72,0 -7.16,-0.71 -10.31,-1.95 -3.16,-1.42 -5.89,-3.36 -8.18,-5.67 -2.29,-2.48 -4.07,-5.31 -5.33,-8.32 -1.27,-3.19 -1.9,-6.55 -1.9,-9.92 0,-3.72 0.63,-7.08 1.9,-10.09 1.27,-3.19 3.06,-5.84 5.38,-8.32 2.32,-2.48 5.07,-4.25 8.22,-5.67 3.16,-1.42 6.6,-2.13 10.32,-2.13 3.72,0 7.15,0.71 10.27,2.13 3.13,1.42 5.85,3.19 8.18,5.67 2.32,2.48 4.12,5.14 5.38,8.32 1.26,3.01 1.89,6.38 1.89,10.09 0,3.37 -0.63,6.73 -1.89,9.92 -1.26,3.01 -3.04,5.84 -5.33,8.32 -2.29,2.3 -5.02,4.25 -8.17,5.67 -3.16,1.24 -6.63,1.95 -10.43,1.95z"/>
  <polygon class="fil3" points="1452.9,686.89 1431.87,636.42 1438.95,636.42 1456.69,680.34 1474.54,636.42 1481.23,636.42 1460.19,686.89 "/>
  <path class="fil3" d="M1519.11 676.27c0.72,-0.89 1.3,-1.77 1.69,-2.66 0.4,-0.71 0.59,-1.59 0.59,-2.13l0 -7.26c-2.25,-0.89 -4.6,-1.59 -7.02,-1.95 -2.43,-0.53 -4.87,-0.71 -7.33,-0.71 -4.85,0 -8.77,0.89 -11.76,2.83 -2.99,1.77 -4.49,4.25 -4.49,7.62 0,1.77 0.5,3.54 1.5,5.14 1,1.59 2.46,3.01 4.39,4.07 1.92,1.06 4.19,1.59 6.77,1.59 3.26,0 6.3,-0.71 9.12,-1.77 2.82,-1.24 5,-2.83 6.54,-4.78zm-34.8 -3.9c0,-3.19 0.93,-5.84 2.79,-8.15 1.86,-2.3 4.44,-4.07 7.73,-5.31 3.29,-1.24 7.1,-1.77 11.42,-1.77 2.53,0 5.15,0.18 7.88,0.53 2.73,0.35 5.15,0.89 7.27,1.77l0 -4.25c0,-4.25 -1.29,-7.62 -3.88,-10.09 -2.59,-2.66 -6.18,-3.9 -10.77,-3.9 -2.79,0 -5.53,0.53 -8.23,1.59 -2.68,0.89 -5.5,2.48 -8.42,4.43l-2.59 -4.78c3.39,-2.13 6.71,-3.9 9.97,-4.96 3.25,-1.24 6.58,-1.77 9.97,-1.77 6.38,0 11.43,1.77 15.16,5.31 3.72,3.54 5.58,8.5 5.58,14.7l0 23.2c0,0.89 0.2,1.59 0.6,1.95 0.4,0.53 1.03,0.71 1.9,0.71l0 5.31c-0.73,0 -1.36,0.18 -1.9,0.18 -0.53,0 -0.93,0 -1.19,0 -1.67,0 -2.93,-0.53 -3.8,-1.59 -0.86,-0.89 -1.33,-1.95 -1.39,-3.01l-0.1 -3.72c-2.33,2.83 -5.35,5.14 -9.08,6.73 -3.72,1.59 -7.51,2.3 -11.37,2.3 -3.32,0 -6.33,-0.71 -9.02,-1.95 -2.7,-1.42 -4.79,-3.36 -6.28,-5.67 -1.5,-2.3 -2.25,-4.96 -2.25,-7.79z"/>
  <path class="fil3" d="M1564.57 687.78c-3.79,0 -7.26,-0.71 -10.42,-1.95 -3.16,-1.42 -5.92,-3.36 -8.27,-5.84 -2.36,-2.48 -4.19,-5.14 -5.49,-8.32 -1.29,-3.19 -1.95,-6.55 -1.95,-10.09 0,-4.78 1.1,-9.03 3.29,-12.93 2.19,-4.07 5.25,-7.08 9.17,-9.39 3.92,-2.3 8.44,-3.54 13.56,-3.54 4.85,0 9.14,1.06 12.86,3.19 3.72,2.3 6.48,5.14 8.27,8.85l-6.58 2.13c-1.46,-2.66 -3.51,-4.6 -6.14,-6.2 -2.62,-1.42 -5.53,-2.13 -8.72,-2.13 -3.45,0 -6.62,0.89 -9.47,2.66 -2.86,1.59 -5.13,4.07 -6.83,7.08 -1.7,3.01 -2.54,6.38 -2.54,10.27 0,3.9 0.86,7.26 2.59,10.27 1.73,3.19 4.03,5.67 6.89,7.44 2.86,1.77 6.01,2.83 9.47,2.83 2.26,0 4.43,-0.53 6.53,-1.24 2.09,-0.71 3.92,-1.77 5.49,-3.19 1.56,-1.24 2.61,-2.66 3.13,-4.25l6.68 1.95c-0.93,2.3 -2.48,4.43 -4.63,6.38 -2.16,1.95 -4.68,3.37 -7.57,4.43 -2.89,1.06 -6,1.59 -9.33,1.59z"/>
  <path class="fil3" d="M1595.98 686.89l0 -50.65 6.78 0 0 50.65 -6.78 0zm0 -61.1l0 -9.74 6.78 0 0 9.74 -6.78 0z"/>
  <path class="fil3" d="M1641.44 626.68l-4.48 -1.59 5.89 -9.03 7.17 0 -8.58 10.63zm-21.23 35.24c0,3.72 0.85,7.09 2.55,10.27 1.69,3.01 3.97,5.49 6.83,7.26 2.86,1.77 6.01,2.66 9.47,2.66 3.46,0 6.61,-1.06 9.47,-2.83 2.86,-1.77 5.15,-4.25 6.87,-7.26 1.73,-3.19 2.6,-6.55 2.6,-10.27 0,-3.72 -0.87,-7.09 -2.6,-10.1 -1.72,-3.19 -4.02,-5.67 -6.87,-7.44 -2.86,-1.77 -6.01,-2.66 -9.47,-2.66 -3.46,0 -6.6,0.89 -9.42,2.83 -2.83,1.77 -5.11,4.25 -6.84,7.26 -1.73,3.19 -2.59,6.55 -2.59,10.27zm18.85 25.86c-3.72,0 -7.17,-0.71 -10.32,-1.95 -3.15,-1.42 -5.88,-3.36 -8.18,-5.67 -2.29,-2.48 -4.07,-5.31 -5.33,-8.32 -1.26,-3.19 -1.89,-6.55 -1.89,-9.92 0,-3.72 0.63,-7.08 1.89,-10.09 1.27,-3.19 3.06,-5.84 5.38,-8.32 2.33,-2.48 5.07,-4.25 8.23,-5.67 3.16,-1.42 6.59,-2.13 10.32,-2.13 3.72,0 7.15,0.71 10.27,2.13 3.13,1.42 5.85,3.19 8.18,5.67 2.33,2.48 4.13,5.14 5.39,8.32 1.26,3.01 1.89,6.38 1.89,10.09 0,3.37 -0.64,6.73 -1.89,9.92 -1.26,3.01 -3.04,5.84 -5.33,8.32 -2.3,2.3 -5.02,4.25 -8.18,5.67 -3.16,1.24 -6.63,1.95 -10.42,1.95z"/>
  <path class="fil3" d="M1719.1 686.89l-6.77 0 0 -28.16c0,-5.85 -0.9,-10.1 -2.69,-12.93 -1.81,-2.66 -4.62,-4.07 -8.48,-4.07 -2.66,0 -5.28,0.71 -7.86,1.95 -2.6,1.24 -4.87,2.83 -6.84,4.96 -1.97,2.3 -3.38,4.61 -4.23,7.44l0 30.82 -6.8 0 0 -50.47 6.2 0 0 11.51c1.4,-2.48 3.22,-4.61 5.47,-6.38 2.27,-1.77 4.84,-3.19 7.69,-4.25 2.85,-1.06 5.81,-1.59 8.87,-1.59 2.85,0 5.28,0.53 7.28,1.59 1.98,1.06 3.6,2.48 4.78,4.43 1.19,1.77 2.06,4.07 2.59,6.73 0.53,2.66 0.8,5.67 0.8,9.03l0 29.4z"/>
  <path class="fil3" d="M1782.33 684.77c-0.55,0.18 -1.36,0.53 -2.5,1.06 -1.13,0.53 -2.5,1.06 -4.09,1.42 -1.59,0.35 -3.33,0.53 -5.19,0.53 -1.91,0 -3.74,-0.35 -5.42,-1.06 -1.7,-0.71 -3.05,-1.77 -4.04,-3.19 -1.01,-1.42 -1.51,-3.37 -1.51,-5.49l0 -36.31 -7.17 0 0 -5.31 7.17 0 0 -17 6.78 0 0 17 11.96 0 0 5.31 -11.96 0 0 34.54c0.12,1.77 0.82,3.19 2.04,4.07 1.22,0.89 2.66,1.42 4.23,1.42 1.88,0 3.56,-0.35 5.1,-0.89 1.52,-0.71 2.46,-1.06 2.78,-1.42l1.81 5.31z"/>
  <path class="fil3" d="M1792.39 659.26l38.4 0c-0.27,-3.54 -1.29,-6.73 -3.05,-9.56 -1.75,-2.83 -4.06,-4.96 -6.87,-6.55 -2.83,-1.42 -5.95,-2.3 -9.33,-2.3 -3.38,0 -6.48,0.89 -9.26,2.3 -2.8,1.59 -5.08,3.9 -6.84,6.55 -1.77,2.83 -2.78,6.02 -3.05,9.56zm19.15 28.51c-3.72,0 -7.17,-0.71 -10.36,-1.95 -3.21,-1.42 -5.95,-3.36 -8.29,-5.84 -2.32,-2.3 -4.13,-5.14 -5.42,-8.32 -1.29,-3.19 -1.95,-6.55 -1.95,-10.09 0,-4.78 1.1,-9.03 3.35,-12.93 2.21,-3.9 5.29,-7.08 9.21,-9.39 3.91,-2.3 8.38,-3.54 13.37,-3.54 5.1,0 9.58,1.24 13.41,3.54 3.83,2.48 6.82,5.49 9.01,9.39 2.2,3.9 3.29,8.15 3.29,12.75 0,0.53 0,1.06 0,1.59 0,0.53 -0.03,0.89 -0.11,1.06l-44.45 0c0.32,3.54 1.36,6.91 3.14,9.56 1.75,2.83 4.04,5.14 6.87,6.73 2.83,1.59 5.9,2.48 9.23,2.48 3.38,0 6.61,-0.89 9.62,-2.48 3.03,-1.77 5.14,-3.9 6.34,-6.73l5.88 1.59c-1.06,2.48 -2.69,4.6 -4.89,6.55 -2.2,1.95 -4.76,3.37 -7.72,4.43 -2.96,1.06 -6.14,1.59 -9.53,1.59z"/>
  <path class="fil3" d="M1869.36 687.78c-3.77,0 -7.26,-0.71 -10.41,-1.95 -3.15,-1.42 -5.92,-3.36 -8.27,-5.84 -2.36,-2.48 -4.2,-5.14 -5.49,-8.32 -1.29,-3.19 -1.93,-6.55 -1.93,-10.09 0,-4.78 1.08,-9.03 3.28,-12.93 2.2,-4.07 5.26,-7.08 9.17,-9.39 3.93,-2.3 8.45,-3.54 13.57,-3.54 4.85,0 9.14,1.06 12.86,3.19 3.72,2.3 6.48,5.14 8.29,8.85l-6.59 2.13c-1.47,-2.66 -3.51,-4.6 -6.13,-6.2 -2.64,-1.42 -5.54,-2.13 -8.73,-2.13 -3.45,0 -6.62,0.89 -9.48,2.66 -2.85,1.59 -5.14,4.07 -6.84,7.08 -1.68,3.01 -2.53,6.38 -2.53,10.27 0,3.9 0.85,7.26 2.59,10.27 1.74,3.19 4.02,5.67 6.89,7.44 2.85,1.77 6,2.83 9.48,2.83 2.25,0 4.43,-0.53 6.52,-1.24 2.11,-0.71 3.93,-1.77 5.49,-3.19 1.56,-1.24 2.6,-2.66 3.13,-4.25l6.68 1.95c-0.92,2.3 -2.48,4.43 -4.62,6.38 -2.18,1.95 -4.69,3.37 -7.6,4.43 -2.87,1.06 -5.99,1.59 -9.32,1.59z"/>
  <path class="fil3" d="M1944.45 686.89l-6.78 0 0 -28.16c0,-5.85 -0.9,-10.1 -2.69,-12.93 -1.81,-2.66 -4.62,-4.07 -8.48,-4.07 -2.66,0 -5.28,0.71 -7.86,1.95 -2.6,1.24 -4.87,2.83 -6.84,4.96 -1.97,2.3 -3.38,4.61 -4.23,7.44l0 30.82 -6.78 0 0 -50.47 6.18 0 0 11.51c1.38,-2.48 3.22,-4.61 5.47,-6.38 2.27,-1.77 4.82,-3.19 7.69,-4.25 2.85,-1.06 5.81,-1.59 8.87,-1.59 2.85,0 5.29,0.53 7.28,1.59 2,1.06 3.6,2.48 4.78,4.43 1.21,1.77 2.05,4.07 2.59,6.73 0.55,2.66 0.81,5.67 0.81,9.03l0 29.4z"/>
  <path class="fil3" d="M1961.38 661.92c0,3.72 0.85,7.09 2.55,10.27 1.68,3.01 3.97,5.49 6.84,7.26 2.85,1.77 6.02,2.66 9.46,2.66 3.47,0 6.62,-1.06 9.49,-2.83 2.85,-1.77 5.14,-4.25 6.87,-7.26 1.72,-3.19 2.58,-6.55 2.58,-10.27 0,-3.72 -0.87,-7.09 -2.58,-10.1 -1.74,-3.19 -4.02,-5.67 -6.87,-7.44 -2.87,-1.77 -6.02,-2.66 -9.49,-2.66 -3.44,0 -6.59,0.89 -9.42,2.83 -2.82,1.77 -5.08,4.25 -6.82,7.26 -1.74,3.19 -2.6,6.55 -2.6,10.27zm18.84 25.86c-3.72,0 -7.16,-0.71 -10.31,-1.95 -3.15,-1.42 -5.88,-3.36 -8.18,-5.67 -2.29,-2.48 -4.07,-5.31 -5.33,-8.32 -1.26,-3.19 -1.9,-6.55 -1.9,-9.92 0,-3.72 0.64,-7.08 1.9,-10.09 1.26,-3.19 3.06,-5.84 5.38,-8.32 2.32,-2.48 5.07,-4.25 8.24,-5.67 3.15,-1.42 6.59,-2.13 10.31,-2.13 3.72,0 7.14,0.71 10.27,2.13 3.13,1.42 5.84,3.19 8.18,5.67 2.32,2.48 4.11,5.14 5.38,8.32 1.26,3.01 1.89,6.38 1.89,10.09 0,3.37 -0.64,6.73 -1.89,9.92 -1.27,3.01 -3.05,5.84 -5.35,8.32 -2.29,2.3 -5.01,4.25 -8.17,5.67 -3.15,1.24 -6.62,1.95 -10.43,1.95z"/>
  <path class="fil3" d="M2016.92 616.05l6.78 0 0 59.68c0,2.66 0.46,4.25 1.4,4.96 0.92,0.89 2.05,1.24 3.38,1.24 1.2,0 2.41,-0.18 3.6,-0.35 1.21,-0.35 2.23,-0.53 3.08,-0.89l1.2 5.49c-1.26,0.35 -2.82,0.89 -4.64,1.24 -1.82,0.18 -3.4,0.35 -4.73,0.35 -3.06,0 -5.51,-0.89 -7.33,-2.66 -1.82,-1.59 -2.74,-4.07 -2.74,-7.08l0 -61.99z"/>
  <path class="fil3" d="M2067.48 626.68l-4.5 -1.59 5.88 -9.03 7.19 0 -8.57 10.63zm-21.25 35.24c0,3.72 0.85,7.09 2.55,10.27 1.7,3.01 3.97,5.49 6.84,7.26 2.85,1.77 6,2.66 9.46,2.66 3.45,0 6.62,-1.06 9.48,-2.83 2.87,-1.77 5.15,-4.25 6.89,-7.26 1.72,-3.19 2.59,-6.55 2.59,-10.27 0,-3.72 -0.87,-7.09 -2.59,-10.1 -1.74,-3.19 -4.02,-5.67 -6.89,-7.44 -2.85,-1.77 -6.02,-2.66 -9.48,-2.66 -3.45,0 -6.59,0.89 -9.42,2.83 -2.82,1.77 -5.1,4.25 -6.82,7.26 -1.74,3.19 -2.6,6.55 -2.6,10.27zm18.84 25.86c-3.72,0 -7.16,-0.71 -10.31,-1.95 -3.15,-1.42 -5.88,-3.36 -8.18,-5.67 -2.29,-2.48 -4.07,-5.31 -5.33,-8.32 -1.26,-3.19 -1.9,-6.55 -1.9,-9.92 0,-3.72 0.64,-7.08 1.9,-10.09 1.26,-3.19 3.05,-5.84 5.38,-8.32 2.32,-2.48 5.07,-4.25 8.24,-5.67 3.15,-1.42 6.59,-2.13 10.31,-2.13 3.72,0 7.14,0.71 10.27,2.13 3.12,1.42 5.84,3.19 8.18,5.67 2.32,2.48 4.11,5.14 5.38,8.32 1.26,3.01 1.9,6.38 1.9,10.09 0,3.37 -0.64,6.73 -1.9,9.92 -1.27,3.01 -3.05,5.84 -5.35,8.32 -2.29,2.3 -5.01,4.25 -8.16,5.67 -3.15,1.24 -6.64,1.95 -10.43,1.95z"/>
  <path class="fil3" d="M2124.21 682.29c2.06,0 4.04,-0.35 5.93,-1.06 1.89,-0.71 3.63,-1.59 5.22,-2.83 1.59,-1.24 2.92,-2.48 4,-4.07 1.05,-1.42 1.72,-3.01 1.98,-4.6l0 -15.59c-0.99,-2.48 -2.43,-4.61 -4.29,-6.55 -1.86,-1.95 -3.97,-3.36 -6.32,-4.43 -2.37,-1.06 -4.82,-1.59 -7.35,-1.59 -2.9,0 -5.53,0.53 -7.81,1.77 -2.3,1.24 -4.23,2.83 -5.79,4.78 -1.56,1.95 -2.78,4.25 -3.63,6.73 -0.87,2.3 -1.29,4.78 -1.29,7.26 0,2.83 0.5,5.31 1.49,7.79 0.99,2.3 2.37,4.6 4.14,6.38 1.75,1.95 3.82,3.54 6.18,4.43 2.36,1.06 4.87,1.59 7.53,1.59zm-1.89 5.49c-3.52,0 -6.78,-0.71 -9.78,-2.12 -2.99,-1.42 -5.56,-3.37 -7.72,-5.67 -2.16,-2.48 -3.84,-5.31 -5.05,-8.32 -1.19,-3.19 -1.79,-6.38 -1.79,-9.56 0,-3.72 0.58,-6.91 1.75,-10.09 1.15,-3.19 2.82,-6.02 4.98,-8.5 2.16,-2.3 4.71,-4.25 7.63,-5.67 2.92,-1.42 6.18,-2.13 9.76,-2.13 4.46,0 8.32,1.06 11.62,3.19 3.29,2.3 6.07,4.96 8.34,8.15l0 -10.63 6.07 0 0 50.65c0,4.78 -1.15,8.68 -3.44,11.87 -2.3,3.19 -5.4,5.49 -9.28,7.08 -3.9,1.77 -8.13,2.48 -12.72,2.48 -5.92,0 -10.7,-1.06 -14.35,-3.01 -3.67,-2.13 -6.66,-4.96 -8.98,-8.5l4.2 -3.19c2.06,3.19 4.8,5.67 8.22,7.08 3.42,1.59 7.07,2.48 10.91,2.48 3.38,0 6.5,-0.71 9.33,-1.77 2.82,-1.24 5.08,-3.01 6.78,-5.31 1.68,-2.48 2.53,-5.31 2.53,-8.85l0 -10.09c-1.98,3.19 -4.73,5.67 -8.18,7.61 -3.45,1.95 -7.08,2.83 -10.86,2.83z"/>
  <path class="fil3" d="M2162.29 686.89l0 -50.65 6.78 0 0 50.65 -6.78 0zm0 -61.1l0 -9.74 6.78 0 0 9.74 -6.78 0z"/>
  <path class="fil3" d="M2205.77 687.78c-3.79,0 -7.26,-0.71 -10.41,-1.95 -3.17,-1.42 -5.93,-3.36 -8.29,-5.84 -2.36,-2.48 -4.18,-5.14 -5.47,-8.32 -1.29,-3.19 -1.95,-6.55 -1.95,-10.09 0,-4.78 1.1,-9.03 3.29,-12.93 2.18,-4.07 5.24,-7.08 9.16,-9.39 3.93,-2.3 8.45,-3.54 13.57,-3.54 4.85,0 9.14,1.06 12.88,3.19 3.7,2.3 6.46,5.14 8.27,8.85l-6.59 2.13c-1.47,-2.66 -3.51,-4.6 -6.13,-6.2 -2.62,-1.42 -5.54,-2.13 -8.73,-2.13 -3.45,0 -6.61,0.89 -9.47,2.66 -2.85,1.59 -5.12,4.07 -6.82,7.08 -1.7,3.01 -2.55,6.38 -2.55,10.27 0,3.9 0.87,7.26 2.6,10.27 1.72,3.19 4.02,5.67 6.87,7.44 2.85,1.77 6,2.83 9.48,2.83 2.25,0 4.43,-0.53 6.53,-1.24 2.09,-0.71 3.91,-1.77 5.47,-3.19 1.56,-1.24 2.6,-2.66 3.15,-4.25l6.68 1.95c-0.94,2.3 -2.48,4.43 -4.64,6.38 -2.16,1.95 -4.69,3.37 -7.58,4.43 -2.89,1.06 -6,1.59 -9.32,1.59z"/>
  <path class="fil3" d="M2267.77 676.27c0.74,-0.89 1.29,-1.77 1.7,-2.66 0.41,-0.71 0.6,-1.59 0.6,-2.13l0 -7.26c-2.27,-0.89 -4.61,-1.59 -7.03,-1.95 -2.43,-0.53 -4.87,-0.71 -7.33,-0.71 -4.85,0 -8.77,0.89 -11.76,2.83 -2.99,1.77 -4.48,4.25 -4.48,7.62 0,1.77 0.5,3.54 1.49,5.14 1.01,1.59 2.46,3.01 4.39,4.07 1.93,1.06 4.18,1.59 6.77,1.59 3.26,0 6.3,-0.71 9.14,-1.77 2.82,-1.24 4.99,-2.83 6.52,-4.78zm-34.78 -3.9c0,-3.19 0.92,-5.84 2.78,-8.15 1.86,-2.3 4.45,-4.07 7.74,-5.31 3.28,-1.24 7.09,-1.77 11.41,-1.77 2.53,0 5.15,0.18 7.88,0.53 2.73,0.35 5.15,0.89 7.28,1.77l0 -4.25c0,-4.25 -1.29,-7.62 -3.88,-10.09 -2.6,-2.66 -6.2,-3.9 -10.79,-3.9 -2.78,0 -5.53,0.53 -8.22,1.59 -2.69,0.89 -5.51,2.48 -8.43,4.43l-2.58 -4.78c3.38,-2.13 6.71,-3.9 9.97,-4.96 3.26,-1.24 6.57,-1.77 9.97,-1.77 6.37,0 11.44,1.77 15.16,5.31 3.7,3.54 5.58,8.5 5.58,14.7l0 23.2c0,0.89 0.19,1.59 0.58,1.95 0.41,0.53 1.05,0.71 1.91,0.71l0 5.31c-0.73,0 -1.36,0.18 -1.91,0.18 -0.53,0 -0.92,0 -1.19,0 -1.67,0 -2.92,-0.53 -3.79,-1.59 -0.87,-0.89 -1.33,-1.95 -1.4,-3.01l-0.09 -3.72c-2.34,2.83 -5.37,5.14 -9.09,6.73 -3.72,1.59 -7.51,2.3 -11.35,2.3 -3.33,0 -6.34,-0.71 -9.03,-1.95 -2.69,-1.42 -4.78,-3.36 -6.27,-5.67 -1.51,-2.3 -2.25,-4.96 -2.25,-7.79z"/>
 </g>
</svg>
