<?xml version="1.0" encoding="iso-8859-1"?>
<!-- Uploaded to: SVG Repo, www.svgrepo.com, Generator: SVG Repo Mixer Tools -->
<svg height="800px" width="800px" version="1.1" id="Layer_1" xmlns="http://www.w3.org/2000/svg" xmlns:xlink="http://www.w3.org/1999/xlink" 
	 viewBox="0 0 512 512" xml:space="preserve">
<path style="fill:#DDB200;" d="M359.812,444.252l-22.765,51.778l-49.494-27.379c-11.351-6.279-25.316-5.387-35.775,2.286
	l-45.606,33.458l-29.173-48.459c-6.69-11.113-19.232-17.323-32.126-15.907l-56.224,6.173l-1.035-56.552
	c-0.237-12.969-7.993-24.619-19.869-29.839l-51.778-22.765l27.379-49.494c6.279-11.351,5.387-25.316-2.286-35.775L7.603,206.172
	l48.459-29.173c11.113-6.69,17.323-19.232,15.907-32.126l-6.173-56.224l56.552-1.035c12.969-0.237,24.619-7.993,29.839-19.869
	l22.765-51.778l49.494,27.379c11.351,6.279,25.316,5.387,35.775-2.286l45.605-33.457l29.173,48.459
	c6.69,11.113,19.232,17.323,32.126,15.907l56.224-6.173l1.035,56.552c0.237,12.969,7.993,24.619,19.869,29.839l51.778,22.765
	l-27.379,49.494c-6.279,11.351-5.387,25.316,2.286,35.775l33.458,45.604l-48.459,29.173c-11.113,6.69-17.323,19.232-15.907,32.126
	l6.173,56.224l-56.552,1.035C376.681,424.621,365.033,432.377,359.812,444.252z"/>
<circle style="fill:#FFDA44;" cx="255.999" cy="255.999" r="164.529"/>
<path style="opacity:0.11;fill:#663A00;enable-background:new    ;" d="M470.937,260.221c-7.673-10.459-8.566-24.425-2.286-35.775
	l27.379-49.494l-47.411-20.846c0.034,1.736,0.066,3.471,0.066,5.215c0,144.26-116.946,261.206-261.206,261.206
	c-35.296,0-68.948-7.016-99.66-19.704l0.83,45.379l56.224-6.173c12.894-1.415,25.436,4.794,32.126,15.907l29.173,48.459
	l45.605-33.458c10.459-7.673,24.425-8.566,35.775-2.286l49.494,27.379l22.765-51.778c5.221-11.874,16.87-19.63,29.839-19.869
	l56.552-1.035l-6.173-56.224c-1.415-12.894,4.794-25.436,15.908-32.126l48.458-29.173L470.937,260.221z"/>
<path d="M255.999,83.867c-94.915,0-172.132,77.219-172.132,172.132s77.218,172.132,172.132,172.132s172.132-77.218,172.132-172.132
	S350.914,83.867,255.999,83.867z M255.999,412.924c-86.529,0-156.924-70.396-156.924-156.924S169.47,99.075,255.999,99.075
	s156.924,70.395,156.924,156.924S342.528,412.924,255.999,412.924z"/>
<path d="M510.526,301.328l-33.458-45.605c-5.898-8.04-6.59-18.872-1.763-27.596l27.379-49.494c1.035-1.87,1.235-4.089,0.551-6.114
	c-0.684-2.025-2.188-3.668-4.144-4.528l-51.778-22.765c-9.128-4.013-15.143-13.048-15.326-23.018l-1.035-56.552
	c-0.04-2.136-0.975-4.158-2.579-5.57c-1.604-1.411-3.727-2.083-5.852-1.849l-56.225,6.173c-9.909,1.087-19.638-3.728-24.781-12.271
	L312.341,3.682c-1.102-1.831-2.924-3.114-5.019-3.533c-2.095-0.42-4.27,0.06-5.994,1.325l-45.604,33.457
	c-8.039,5.898-18.872,6.59-27.597,1.763L178.633,9.315c-1.871-1.035-4.088-1.235-6.114-0.551c-2.025,0.683-3.668,2.188-4.528,4.144
	l-22.765,51.777c-4.013,9.128-13.048,15.144-23.018,15.327l-56.552,1.036c-2.136,0.04-4.158,0.975-5.57,2.579
	c-1.411,1.605-2.082,3.729-1.849,5.853l6.173,56.224c1.088,9.912-3.728,19.638-12.271,24.782L3.682,199.658
	c-1.831,1.102-3.114,2.924-3.533,5.019c-0.42,2.095,0.061,4.27,1.324,5.994l33.458,45.605c5.899,8.04,6.59,18.872,1.764,27.597
	L9.316,333.365c-1.035,1.87-1.235,4.089-0.551,6.114s2.188,3.668,4.144,4.528l51.778,22.766
	c9.128,4.013,15.144,13.048,15.327,23.018l1.035,56.552c0.04,2.136,0.975,4.158,2.579,5.57c1.605,1.411,3.728,2.087,5.853,1.849
	l56.224-6.173c9.903-1.091,19.638,3.728,24.782,12.271l29.173,48.458c1.102,1.831,2.924,3.114,5.019,3.533
	c0.497,0.099,0.997,0.148,1.495,0.148c1.605,0,3.184-0.508,4.499-1.473l45.605-33.458c8.04-5.898,18.871-6.59,27.597-1.763
	l49.493,27.379c1.869,1.035,4.087,1.234,6.114,0.551c2.025-0.683,3.668-2.188,4.528-4.144l22.766-51.778
	c4.013-9.127,13.048-15.144,23.018-15.327l56.552-1.035c2.136-0.04,4.158-0.975,5.57-2.579c1.411-1.605,2.082-3.729,1.849-5.852
	l-6.173-56.225c-1.088-9.911,3.728-19.638,12.271-24.781l48.458-29.173c1.831-1.102,3.114-2.924,3.533-5.019
	C512.271,305.228,511.79,303.051,510.526,301.328z M452.015,328.484c-13.606,8.191-21.278,23.684-19.544,39.471l5.264,47.943
	l-48.223,0.883c-15.878,0.291-30.269,9.873-36.661,24.411l-19.412,44.153l-42.204-23.347c-13.897-7.689-31.15-6.586-43.955,2.809
	l-38.888,28.531l-24.877-41.322c-7.424-12.331-20.842-19.786-35.043-19.786c-1.469,0-2.947,0.08-4.428,0.242L96.1,437.736
	l-0.883-48.223c-0.291-15.879-9.872-30.269-24.411-36.661l-44.152-19.413l23.347-42.204c7.688-13.897,6.585-31.15-2.809-43.955
	l-28.53-38.889l41.321-24.876c13.606-8.191,21.278-23.684,19.544-39.471L74.264,96.1l48.223-0.883
	c15.878-0.291,30.269-9.872,36.661-24.411l19.412-44.152l42.204,23.347c13.897,7.687,31.15,6.585,43.955-2.809l38.888-28.53
	l24.877,41.321c8.191,13.606,23.684,21.278,39.47,19.544l47.944-5.264l0.883,48.223c0.29,15.879,9.872,30.269,24.41,36.661
	l44.153,19.412l-23.347,42.204c-7.688,13.896-6.585,31.149,2.809,43.954l28.531,38.889L452.015,328.484z"/>
<path d="M255.999,138.335c-64.881,0-117.665,52.785-117.665,117.665c0,4.199,3.405,7.604,7.604,7.604s7.604-3.405,7.604-7.604
	c0-56.495,45.961-102.457,102.457-102.457c4.199,0,7.604-3.405,7.604-7.604S260.199,138.335,255.999,138.335z"/>
</svg>